<svg xmlns="http://www.w3.org/2000/svg" xmlns:xlink="http://www.w3.org/1999/xlink" width="724" zoomAndPan="magnify" viewBox="0 0 543 551.249983" height="735" preserveAspectRatio="xMidYMid meet" version="1.0"><defs><g/><clipPath id="1cdba4024d"><rect x="0" width="501" y="0" height="139"/></clipPath><clipPath id="4e97805d92"><path d="M 108 47 L 380 47 L 380 375.988281 L 108 375.988281 Z M 108 47 " clip-rule="nonzero"/></clipPath></defs><g transform="matrix(1, 0, 0, 1, 21, 392)"><g clip-path="url(#1cdba4024d)"><g fill="#000000" fill-opacity="1"><g transform="translate(1.117808, 60.315464)"><g><path d="M 42 0.265625 C 40.53125 0.265625 38.984375 0.078125 37.359375 -0.296875 C 35.734375 -0.679688 34.171875 -1.492188 32.671875 -2.734375 C 31.179688 -3.984375 29.898438 -5.878906 28.828125 -8.421875 L 27.296875 -12.171875 L 9.5 -12.171875 L 4.015625 0 L 0.53125 0 L 20.265625 -44.140625 L 23.28125 -44.140625 L 38.265625 -8.421875 C 39.066406 -6.460938 40.046875 -4.898438 41.203125 -3.734375 C 42.359375 -2.578125 43.695312 -1.910156 45.21875 -1.734375 L 45.21875 -0.0625 C 44.863281 0.0195312 44.363281 0.09375 43.71875 0.15625 C 43.070312 0.226562 42.5 0.265625 42 0.265625 Z M 10.90625 -15.1875 L 26.015625 -15.1875 L 18.65625 -32.640625 Z M 10.90625 -15.1875 "/></g></g></g><g fill="#000000" fill-opacity="1"><g transform="translate(44.390757, 60.315464)"><g><path d="M 6.359375 0 L 6.359375 -35.453125 C 6.359375 -37.460938 6.078125 -39.078125 5.515625 -40.296875 C 4.960938 -41.523438 3.679688 -42.140625 1.671875 -42.140625 L 1 -42.140625 L 1 -44.140625 L 19.0625 -44.140625 C 21.15625 -44.140625 23.347656 -44.015625 25.640625 -43.765625 C 27.941406 -43.523438 30.082031 -43.015625 32.0625 -42.234375 C 34.050781 -41.460938 35.671875 -40.296875 36.921875 -38.734375 C 38.171875 -37.171875 38.796875 -35.070312 38.796875 -32.4375 C 38.796875 -30.519531 38.023438 -28.632812 36.484375 -26.78125 C 34.953125 -24.9375 32.625 -23.613281 29.5 -22.8125 C 32.4375 -22.539062 34.71875 -21.890625 36.34375 -20.859375 C 37.976562 -19.835938 39.128906 -18.578125 39.796875 -17.078125 C 40.460938 -15.585938 40.796875 -13.972656 40.796875 -12.234375 C 40.796875 -9.691406 40.226562 -7.617188 39.09375 -6.015625 C 37.957031 -4.410156 36.429688 -3.171875 34.515625 -2.296875 C 32.597656 -1.429688 30.46875 -0.832031 28.125 -0.5 C 25.78125 -0.164062 23.429688 0 21.078125 0 Z M 15.046875 -24.140625 L 20.0625 -24.140625 C 22.78125 -24.140625 25.019531 -24.785156 26.78125 -26.078125 C 28.550781 -27.378906 29.4375 -29.613281 29.4375 -32.78125 C 29.4375 -35.007812 28.929688 -36.742188 27.921875 -37.984375 C 26.921875 -39.234375 25.628906 -40.125 24.046875 -40.65625 C 22.460938 -41.195312 20.800781 -41.46875 19.0625 -41.46875 C 18.53125 -41.46875 18.019531 -41.445312 17.53125 -41.40625 C 17.039062 -41.363281 16.613281 -41.296875 16.25 -41.203125 L 15.046875 -41 Z M 19.734375 -2.671875 L 20.0625 -2.671875 C 23.769531 -2.671875 26.59375 -3.472656 28.53125 -5.078125 C 30.46875 -6.679688 31.4375 -8.957031 31.4375 -11.90625 C 31.4375 -18.0625 27.644531 -21.140625 20.0625 -21.140625 L 15.046875 -21.140625 L 15.046875 -3.34375 C 15.273438 -3.300781 15.5 -3.242188 15.71875 -3.171875 C 15.9375 -3.109375 16.160156 -3.054688 16.390625 -3.015625 C 17.367188 -2.785156 18.484375 -2.671875 19.734375 -2.671875 Z M 19.734375 -2.671875 "/></g></g></g><g fill="#000000" fill-opacity="1"><g transform="translate(87.06174, 60.315464)"><g><path d="M 24.21875 0.671875 C 12.175781 0.671875 6.15625 -5.972656 6.15625 -19.265625 L 6.15625 -35.453125 C 6.15625 -37.460938 5.875 -39.078125 5.3125 -40.296875 C 4.757812 -41.523438 3.476562 -42.140625 1.46875 -42.140625 L 1.46875 -44.140625 L 8.828125 -44.140625 C 11.191406 -44.140625 12.785156 -43.515625 13.609375 -42.265625 C 14.429688 -41.023438 14.84375 -38.753906 14.84375 -35.453125 L 14.921875 -17.25 C 14.960938 -12.613281 15.863281 -8.96875 17.625 -6.3125 C 19.382812 -3.664062 22.023438 -2.34375 25.546875 -2.34375 C 30.097656 -2.34375 33.410156 -3.703125 35.484375 -6.421875 C 37.554688 -9.140625 38.59375 -13.421875 38.59375 -19.265625 L 38.59375 -44.140625 L 41.9375 -44.140625 L 41.9375 -19.265625 C 41.9375 -15.078125 41.367188 -11.5 40.234375 -8.53125 C 39.097656 -5.5625 37.234375 -3.285156 34.640625 -1.703125 C 32.054688 -0.117188 28.582031 0.671875 24.21875 0.671875 Z M 24.21875 0.671875 "/></g></g></g><g fill="#000000" fill-opacity="1"><g transform="translate(133.478158, 60.315464)"><g/></g></g><g fill="#000000" fill-opacity="1"><g transform="translate(150.198767, 60.315464)"><g><path d="M 6.359375 0 L 6.359375 -35.453125 C 6.359375 -37.460938 6.078125 -39.078125 5.515625 -40.296875 C 4.960938 -41.523438 3.679688 -42.140625 1.671875 -42.140625 L 1 -42.140625 L 1 -44.140625 L 9.03125 -44.140625 C 11.394531 -44.140625 12.988281 -43.515625 13.8125 -42.265625 C 14.632812 -41.023438 15.046875 -38.753906 15.046875 -35.453125 L 15.046875 -24.421875 L 33.109375 -24.421875 L 33.109375 -44.140625 L 41.8125 -44.140625 L 41.8125 -8.703125 C 41.8125 -6.691406 42.085938 -5.070312 42.640625 -3.84375 C 43.203125 -2.613281 44.484375 -2 46.484375 -2 L 47.15625 -2 L 47.15625 0 L 39.125 0 C 36.8125 0 35.226562 -0.597656 34.375 -1.796875 C 33.53125 -3.003906 33.109375 -5.304688 33.109375 -8.703125 L 33.109375 -21.40625 L 15.046875 -21.40625 L 15.046875 0 Z M 6.359375 0 "/></g></g></g><g fill="#000000" fill-opacity="1"><g transform="translate(197.752166, 60.315464)"><g><path d="M 24.21875 0.671875 C 12.175781 0.671875 6.15625 -5.972656 6.15625 -19.265625 L 6.15625 -35.453125 C 6.15625 -37.460938 5.875 -39.078125 5.3125 -40.296875 C 4.757812 -41.523438 3.476562 -42.140625 1.46875 -42.140625 L 1.46875 -44.140625 L 8.828125 -44.140625 C 11.191406 -44.140625 12.785156 -43.515625 13.609375 -42.265625 C 14.429688 -41.023438 14.84375 -38.753906 14.84375 -35.453125 L 14.921875 -17.25 C 14.960938 -12.613281 15.863281 -8.96875 17.625 -6.3125 C 19.382812 -3.664062 22.023438 -2.34375 25.546875 -2.34375 C 30.097656 -2.34375 33.410156 -3.703125 35.484375 -6.421875 C 37.554688 -9.140625 38.59375 -13.421875 38.59375 -19.265625 L 38.59375 -44.140625 L 41.9375 -44.140625 L 41.9375 -19.265625 C 41.9375 -15.078125 41.367188 -11.5 40.234375 -8.53125 C 39.097656 -5.5625 37.234375 -3.285156 34.640625 -1.703125 C 32.054688 -0.117188 28.582031 0.671875 24.21875 0.671875 Z M 24.21875 0.671875 "/></g></g></g><g fill="#000000" fill-opacity="1"><g transform="translate(244.168597, 60.315464)"><g><path d="M 37.453125 0.671875 C 35.085938 0.671875 32.890625 -0.03125 30.859375 -1.4375 C 28.835938 -2.84375 26.710938 -5.375 24.484375 -9.03125 L 17.796875 -20.203125 L 15.125 -20.203125 L 15.125 0 L 6.359375 0 L 6.359375 -35.453125 C 6.359375 -37.460938 6.078125 -39.078125 5.515625 -40.296875 C 4.960938 -41.523438 3.679688 -42.140625 1.671875 -42.140625 L 1 -42.140625 L 1 -44.140625 L 19.46875 -44.140625 C 20.71875 -44.140625 22.144531 -44.0625 23.75 -43.90625 C 25.351562 -43.75 26.957031 -43.4375 28.5625 -42.96875 C 30.164062 -42.507812 31.644531 -41.820312 33 -40.90625 C 34.363281 -39.988281 35.457031 -38.796875 36.28125 -37.328125 C 37.113281 -35.859375 37.53125 -34.03125 37.53125 -31.84375 C 37.53125 -29.519531 36.984375 -27.609375 35.890625 -26.109375 C 34.796875 -24.617188 33.410156 -23.460938 31.734375 -22.640625 C 30.066406 -21.816406 28.382812 -21.179688 26.6875 -20.734375 L 33.71875 -9.03125 C 35.40625 -6.175781 36.960938 -4.28125 38.390625 -3.34375 C 39.816406 -2.40625 41.019531 -1.847656 42 -1.671875 L 42 0 C 41.644531 0.175781 41.007812 0.332031 40.09375 0.46875 C 39.1875 0.601562 38.304688 0.671875 37.453125 0.671875 Z M 15.125 -22.875 L 19.125 -22.875 C 20.550781 -22.875 21.957031 -23.160156 23.34375 -23.734375 C 24.726562 -24.316406 25.875 -25.289062 26.78125 -26.65625 C 27.695312 -28.019531 28.15625 -29.859375 28.15625 -32.171875 C 28.15625 -34.492188 27.707031 -36.332031 26.8125 -37.6875 C 25.925781 -39.050781 24.8125 -40.019531 23.46875 -40.59375 C 22.132812 -41.175781 20.800781 -41.46875 19.46875 -41.46875 C 18.925781 -41.46875 18.390625 -41.445312 17.859375 -41.40625 C 17.328125 -41.363281 16.859375 -41.296875 16.453125 -41.203125 L 15.125 -41 Z M 15.125 -22.875 "/></g></g></g><g fill="#000000" fill-opacity="1"><g transform="translate(285.368173, 60.315464)"><g><path d="M 42 0.265625 C 40.53125 0.265625 38.984375 0.078125 37.359375 -0.296875 C 35.734375 -0.679688 34.171875 -1.492188 32.671875 -2.734375 C 31.179688 -3.984375 29.898438 -5.878906 28.828125 -8.421875 L 27.296875 -12.171875 L 9.5 -12.171875 L 4.015625 0 L 0.53125 0 L 20.265625 -44.140625 L 23.28125 -44.140625 L 38.265625 -8.421875 C 39.066406 -6.460938 40.046875 -4.898438 41.203125 -3.734375 C 42.359375 -2.578125 43.695312 -1.910156 45.21875 -1.734375 L 45.21875 -0.0625 C 44.863281 0.0195312 44.363281 0.09375 43.71875 0.15625 C 43.070312 0.226562 42.5 0.265625 42 0.265625 Z M 10.90625 -15.1875 L 26.015625 -15.1875 L 18.65625 -32.640625 Z M 10.90625 -15.1875 "/></g></g></g><g fill="#000000" fill-opacity="1"><g transform="translate(324.092972, 60.315464)"><g><path d="M 18.65625 0 L 18.65625 -17.65625 L 6.828125 -35.453125 C 6.066406 -36.609375 5.179688 -37.722656 4.171875 -38.796875 C 3.171875 -39.867188 2.132812 -40.78125 1.0625 -41.53125 C 0 -42.289062 -1.046875 -42.71875 -2.078125 -42.8125 L -2.078125 -44.140625 L 5.21875 -44.140625 C 6.914062 -44.140625 8.441406 -43.757812 9.796875 -43 C 11.160156 -42.25 12.375 -41.316406 13.4375 -40.203125 C 14.507812 -39.085938 15.40625 -37.953125 16.125 -36.796875 L 25.21875 -23.078125 L 38.1875 -44.140625 L 42.546875 -44.140625 L 27.359375 -19.46875 L 27.359375 0 Z M 18.65625 0 "/></g></g></g><g fill="#000000" fill-opacity="1"><g transform="translate(366.763967, 60.315464)"><g><path d="M 37.453125 0.671875 C 35.085938 0.671875 32.890625 -0.03125 30.859375 -1.4375 C 28.835938 -2.84375 26.710938 -5.375 24.484375 -9.03125 L 17.796875 -20.203125 L 15.125 -20.203125 L 15.125 0 L 6.359375 0 L 6.359375 -35.453125 C 6.359375 -37.460938 6.078125 -39.078125 5.515625 -40.296875 C 4.960938 -41.523438 3.679688 -42.140625 1.671875 -42.140625 L 1 -42.140625 L 1 -44.140625 L 19.46875 -44.140625 C 20.71875 -44.140625 22.144531 -44.0625 23.75 -43.90625 C 25.351562 -43.75 26.957031 -43.4375 28.5625 -42.96875 C 30.164062 -42.507812 31.644531 -41.820312 33 -40.90625 C 34.363281 -39.988281 35.457031 -38.796875 36.28125 -37.328125 C 37.113281 -35.859375 37.53125 -34.03125 37.53125 -31.84375 C 37.53125 -29.519531 36.984375 -27.609375 35.890625 -26.109375 C 34.796875 -24.617188 33.410156 -23.460938 31.734375 -22.640625 C 30.066406 -21.816406 28.382812 -21.179688 26.6875 -20.734375 L 33.71875 -9.03125 C 35.40625 -6.175781 36.960938 -4.28125 38.390625 -3.34375 C 39.816406 -2.40625 41.019531 -1.847656 42 -1.671875 L 42 0 C 41.644531 0.175781 41.007812 0.332031 40.09375 0.46875 C 39.1875 0.601562 38.304688 0.671875 37.453125 0.671875 Z M 15.125 -22.875 L 19.125 -22.875 C 20.550781 -22.875 21.957031 -23.160156 23.34375 -23.734375 C 24.726562 -24.316406 25.875 -25.289062 26.78125 -26.65625 C 27.695312 -28.019531 28.15625 -29.859375 28.15625 -32.171875 C 28.15625 -34.492188 27.707031 -36.332031 26.8125 -37.6875 C 25.925781 -39.050781 24.8125 -40.019531 23.46875 -40.59375 C 22.132812 -41.175781 20.800781 -41.46875 19.46875 -41.46875 C 18.925781 -41.46875 18.390625 -41.445312 17.859375 -41.40625 C 17.328125 -41.363281 16.859375 -41.296875 16.453125 -41.203125 L 15.125 -41 Z M 15.125 -22.875 "/></g></g></g><g fill="#000000" fill-opacity="1"><g transform="translate(407.963543, 60.315464)"><g><path d="M 42 0.265625 C 40.53125 0.265625 38.984375 0.078125 37.359375 -0.296875 C 35.734375 -0.679688 34.171875 -1.492188 32.671875 -2.734375 C 31.179688 -3.984375 29.898438 -5.878906 28.828125 -8.421875 L 27.296875 -12.171875 L 9.5 -12.171875 L 4.015625 0 L 0.53125 0 L 20.265625 -44.140625 L 23.28125 -44.140625 L 38.265625 -8.421875 C 39.066406 -6.460938 40.046875 -4.898438 41.203125 -3.734375 C 42.359375 -2.578125 43.695312 -1.910156 45.21875 -1.734375 L 45.21875 -0.0625 C 44.863281 0.0195312 44.363281 0.09375 43.71875 0.15625 C 43.070312 0.226562 42.5 0.265625 42 0.265625 Z M 10.90625 -15.1875 L 26.015625 -15.1875 L 18.65625 -32.640625 Z M 10.90625 -15.1875 "/></g></g></g><g fill="#000000" fill-opacity="1"><g transform="translate(451.236505, 60.315464)"><g><path d="M 6.359375 0 L 6.359375 -35.453125 C 6.359375 -37.460938 6.078125 -39.078125 5.515625 -40.296875 C 4.960938 -41.523438 3.679688 -42.140625 1.671875 -42.140625 L 1 -42.140625 L 1 -44.140625 L 9.03125 -44.140625 C 11.394531 -44.140625 12.988281 -43.515625 13.8125 -42.265625 C 14.632812 -41.023438 15.046875 -38.753906 15.046875 -35.453125 L 15.046875 -24.421875 L 33.109375 -24.421875 L 33.109375 -44.140625 L 41.8125 -44.140625 L 41.8125 -8.703125 C 41.8125 -6.691406 42.085938 -5.070312 42.640625 -3.84375 C 43.203125 -2.613281 44.484375 -2 46.484375 -2 L 47.15625 -2 L 47.15625 0 L 39.125 0 C 36.8125 0 35.226562 -0.597656 34.375 -1.796875 C 33.53125 -3.003906 33.109375 -5.304688 33.109375 -8.703125 L 33.109375 -21.40625 L 15.046875 -21.40625 L 15.046875 0 Z M 6.359375 0 "/></g></g></g><g fill="#000000" fill-opacity="1"><g transform="translate(56.730482, 123.109682)"><g><path d="M 6.359375 0 L 6.359375 -35.453125 C 6.359375 -37.460938 6.078125 -39.078125 5.515625 -40.296875 C 4.960938 -41.523438 3.679688 -42.140625 1.671875 -42.140625 L 1 -42.140625 L 1 -44.140625 L 30.5 -44.140625 C 32.0625 -44.140625 33.242188 -43.882812 34.046875 -43.375 C 34.847656 -42.863281 35.40625 -42.195312 35.71875 -41.375 C 36.03125 -40.550781 36.1875 -39.691406 36.1875 -38.796875 L 36.1875 -33.109375 L 34.1875 -33.109375 C 34.1875 -35.960938 33.457031 -38.015625 32 -39.265625 C 30.550781 -40.515625 28.488281 -41.140625 25.8125 -41.140625 L 15.046875 -41.140625 L 15.046875 -24.421875 L 32.4375 -24.421875 L 32.4375 -21.40625 L 15.046875 -21.40625 L 15.046875 -3.015625 L 26.484375 -3.015625 C 28.941406 -3.015625 31.023438 -3.554688 32.734375 -4.640625 C 34.453125 -5.734375 35.894531 -7.734375 37.0625 -10.640625 L 38.859375 -9.96875 L 36.921875 -4.6875 C 36.429688 -3.257812 35.796875 -2.117188 35.015625 -1.265625 C 34.234375 -0.421875 32.929688 0 31.109375 0 Z M 6.359375 0 "/></g></g></g><g fill="#000000" fill-opacity="1"><g transform="translate(96.859949, 123.109682)"><g><path d="M 18.265625 1.140625 C 15.859375 1.140625 13.492188 0.828125 11.171875 0.203125 C 8.847656 -0.421875 6.925781 -1.332031 5.40625 -2.53125 C 3.894531 -3.738281 3.140625 -5.191406 3.140625 -6.890625 L 3.140625 -14.71875 L 5.015625 -14.71875 C 5.734375 -10.082031 7.171875 -6.78125 9.328125 -4.8125 C 11.492188 -2.851562 14.445312 -1.875 18.1875 -1.875 C 20.726562 -1.875 22.769531 -2.421875 24.3125 -3.515625 C 25.851562 -4.609375 26.625 -6.222656 26.625 -8.359375 C 26.625 -10.273438 26.007812 -11.867188 24.78125 -13.140625 C 23.550781 -14.410156 21.867188 -15.691406 19.734375 -16.984375 L 11.5 -21.9375 C 8.46875 -23.71875 6.328125 -25.546875 5.078125 -27.421875 C 3.828125 -29.296875 3.203125 -31.457031 3.203125 -33.90625 C 3.203125 -37.4375 4.550781 -40.226562 7.25 -42.28125 C 9.945312 -44.332031 13.59375 -45.359375 18.1875 -45.359375 C 20.644531 -45.359375 23.019531 -45.046875 25.3125 -44.421875 C 27.613281 -43.796875 29.519531 -42.878906 31.03125 -41.671875 C 32.550781 -40.460938 33.3125 -39.015625 33.3125 -37.328125 L 33.3125 -29.5 L 31.4375 -29.5 C 30.675781 -34.132812 29.25 -37.429688 27.15625 -39.390625 C 25.0625 -41.359375 22.320312 -42.34375 18.9375 -42.34375 C 16.519531 -42.34375 14.609375 -41.757812 13.203125 -40.59375 C 11.804688 -39.4375 11.109375 -37.859375 11.109375 -35.859375 C 11.109375 -33.984375 11.742188 -32.460938 13.015625 -31.296875 C 14.285156 -30.140625 15.96875 -28.9375 18.0625 -27.6875 L 26.28125 -22.8125 C 29.320312 -21.03125 31.539062 -19.28125 32.9375 -17.5625 C 34.34375 -15.84375 35.046875 -13.753906 35.046875 -11.296875 C 35.046875 -7.460938 33.597656 -4.429688 30.703125 -2.203125 C 27.804688 0.0234375 23.660156 1.140625 18.265625 1.140625 Z M 18.265625 1.140625 "/></g></g></g><g fill="#000000" fill-opacity="1"><g transform="translate(134.381002, 123.109682)"><g><path d="M 18.265625 1.140625 C 15.859375 1.140625 13.492188 0.828125 11.171875 0.203125 C 8.847656 -0.421875 6.925781 -1.332031 5.40625 -2.53125 C 3.894531 -3.738281 3.140625 -5.191406 3.140625 -6.890625 L 3.140625 -14.71875 L 5.015625 -14.71875 C 5.734375 -10.082031 7.171875 -6.78125 9.328125 -4.8125 C 11.492188 -2.851562 14.445312 -1.875 18.1875 -1.875 C 20.726562 -1.875 22.769531 -2.421875 24.3125 -3.515625 C 25.851562 -4.609375 26.625 -6.222656 26.625 -8.359375 C 26.625 -10.273438 26.007812 -11.867188 24.78125 -13.140625 C 23.550781 -14.410156 21.867188 -15.691406 19.734375 -16.984375 L 11.5 -21.9375 C 8.46875 -23.71875 6.328125 -25.546875 5.078125 -27.421875 C 3.828125 -29.296875 3.203125 -31.457031 3.203125 -33.90625 C 3.203125 -37.4375 4.550781 -40.226562 7.25 -42.28125 C 9.945312 -44.332031 13.59375 -45.359375 18.1875 -45.359375 C 20.644531 -45.359375 23.019531 -45.046875 25.3125 -44.421875 C 27.613281 -43.796875 29.519531 -42.878906 31.03125 -41.671875 C 32.550781 -40.460938 33.3125 -39.015625 33.3125 -37.328125 L 33.3125 -29.5 L 31.4375 -29.5 C 30.675781 -34.132812 29.25 -37.429688 27.15625 -39.390625 C 25.0625 -41.359375 22.320312 -42.34375 18.9375 -42.34375 C 16.519531 -42.34375 14.609375 -41.757812 13.203125 -40.59375 C 11.804688 -39.4375 11.109375 -37.859375 11.109375 -35.859375 C 11.109375 -33.984375 11.742188 -32.460938 13.015625 -31.296875 C 14.285156 -30.140625 15.96875 -28.9375 18.0625 -27.6875 L 26.28125 -22.8125 C 29.320312 -21.03125 31.539062 -19.28125 32.9375 -17.5625 C 34.34375 -15.84375 35.046875 -13.753906 35.046875 -11.296875 C 35.046875 -7.460938 33.597656 -4.429688 30.703125 -2.203125 C 27.804688 0.0234375 23.660156 1.140625 18.265625 1.140625 Z M 18.265625 1.140625 "/></g></g></g><g fill="#000000" fill-opacity="1"><g transform="translate(171.902055, 123.109682)"><g><path d="M 6.359375 0 L 6.359375 -35.453125 C 6.359375 -37.460938 6.078125 -39.078125 5.515625 -40.296875 C 4.960938 -41.523438 3.679688 -42.140625 1.671875 -42.140625 L 1 -42.140625 L 1 -44.140625 L 30.5 -44.140625 C 32.0625 -44.140625 33.242188 -43.882812 34.046875 -43.375 C 34.847656 -42.863281 35.40625 -42.195312 35.71875 -41.375 C 36.03125 -40.550781 36.1875 -39.691406 36.1875 -38.796875 L 36.1875 -33.109375 L 34.1875 -33.109375 C 34.1875 -35.960938 33.457031 -38.015625 32 -39.265625 C 30.550781 -40.515625 28.488281 -41.140625 25.8125 -41.140625 L 15.046875 -41.140625 L 15.046875 -24.421875 L 32.4375 -24.421875 L 32.4375 -21.40625 L 15.046875 -21.40625 L 15.046875 -3.015625 L 26.484375 -3.015625 C 28.941406 -3.015625 31.023438 -3.554688 32.734375 -4.640625 C 34.453125 -5.734375 35.894531 -7.734375 37.0625 -10.640625 L 38.859375 -9.96875 L 36.921875 -4.6875 C 36.429688 -3.257812 35.796875 -2.117188 35.015625 -1.265625 C 34.234375 -0.421875 32.929688 0 31.109375 0 Z M 6.359375 0 "/></g></g></g><g fill="#000000" fill-opacity="1"><g transform="translate(212.031522, 123.109682)"><g><path d="M 38.265625 0.203125 L 9.90625 -33.109375 L 9.90625 0 L 6.5625 0 L 6.5625 -36.125 C 6.5625 -37.8125 6.144531 -39.234375 5.3125 -40.390625 C 4.488281 -41.554688 2.894531 -42.140625 0.53125 -42.140625 L 0.203125 -42.140625 L 0.203125 -44.140625 L 4.890625 -44.140625 C 7.429688 -44.140625 9.488281 -43.804688 11.0625 -43.140625 C 12.644531 -42.472656 13.953125 -41.472656 14.984375 -40.140625 L 38 -13.375 L 38 -44.140625 L 41.34375 -44.140625 L 41.34375 0.203125 Z M 38.265625 0.203125 "/></g></g></g><g fill="#000000" fill-opacity="1"><g transform="translate(258.31417, 123.109682)"><g><path d="M 15.515625 0 L 15.515625 -41.140625 L 10.765625 -41.140625 C 8.398438 -41.140625 6.523438 -40.546875 5.140625 -39.359375 C 3.765625 -38.179688 3.078125 -36.097656 3.078125 -33.109375 L 1.0625 -33.109375 L 1.0625 -38.796875 C 1.0625 -39.691406 1.21875 -40.550781 1.53125 -41.375 C 1.84375 -42.195312 2.410156 -42.863281 3.234375 -43.375 C 4.066406 -43.882812 5.238281 -44.140625 6.75 -44.140625 L 38.1875 -44.140625 L 38.1875 -41.140625 L 24.21875 -41.140625 L 24.21875 0 Z M 15.515625 0 "/></g></g></g><g fill="#000000" fill-opacity="1"><g transform="translate(296.771575, 123.109682)"><g><path d="M 11.296875 0 C 8.984375 0 7.398438 -0.597656 6.546875 -1.796875 C 5.703125 -3.003906 5.28125 -5.304688 5.28125 -8.703125 L 5.28125 -44.140625 L 13.984375 -44.140625 L 13.984375 -8.703125 C 13.984375 -6.691406 14.257812 -5.070312 14.8125 -3.84375 C 15.375 -2.613281 16.65625 -2 18.65625 -2 L 19.328125 -2 L 19.328125 0 Z M 11.296875 0 "/></g></g></g><g fill="#000000" fill-opacity="1"><g transform="translate(316.16747, 123.109682)"><g><path d="M 42 0.265625 C 40.53125 0.265625 38.984375 0.078125 37.359375 -0.296875 C 35.734375 -0.679688 34.171875 -1.492188 32.671875 -2.734375 C 31.179688 -3.984375 29.898438 -5.878906 28.828125 -8.421875 L 27.296875 -12.171875 L 9.5 -12.171875 L 4.015625 0 L 0.53125 0 L 20.265625 -44.140625 L 23.28125 -44.140625 L 38.265625 -8.421875 C 39.066406 -6.460938 40.046875 -4.898438 41.203125 -3.734375 C 42.359375 -2.578125 43.695312 -1.910156 45.21875 -1.734375 L 45.21875 -0.0625 C 44.863281 0.0195312 44.363281 0.09375 43.71875 0.15625 C 43.070312 0.226562 42.5 0.265625 42 0.265625 Z M 10.90625 -15.1875 L 26.015625 -15.1875 L 18.65625 -32.640625 Z M 10.90625 -15.1875 "/></g></g></g><g fill="#000000" fill-opacity="1"><g transform="translate(359.440406, 123.109682)"><g><path d="M 6.359375 0 L 6.359375 -35.453125 C 6.359375 -37.460938 6.078125 -39.078125 5.515625 -40.296875 C 4.960938 -41.523438 3.679688 -42.140625 1.671875 -42.140625 L 1 -42.140625 L 1 -44.140625 L 9.03125 -44.140625 C 11.394531 -44.140625 12.988281 -43.515625 13.8125 -42.265625 C 14.632812 -41.023438 15.046875 -38.753906 15.046875 -35.453125 L 15.046875 -3.015625 L 38.125 -3.015625 L 38.125 0 Z M 6.359375 0 "/></g></g></g><g fill="#000000" fill-opacity="1"><g transform="translate(391.677558, 123.109682)"><g><path d="M 4.421875 -27.5625 L 3.203125 -29.171875 C 3.960938 -29.660156 4.765625 -30.304688 5.609375 -31.109375 C 6.460938 -31.910156 7.191406 -32.84375 7.796875 -33.90625 C 8.398438 -34.976562 8.703125 -36.1875 8.703125 -37.53125 L 7.6875 -37.328125 C 6.394531 -37.328125 5.390625 -37.703125 4.671875 -38.453125 C 3.960938 -39.210938 3.609375 -40.195312 3.609375 -41.40625 C 3.609375 -42.613281 3.960938 -43.59375 4.671875 -44.34375 C 5.390625 -45.101562 6.394531 -45.484375 7.6875 -45.484375 C 9.164062 -45.484375 10.269531 -44.945312 11 -43.875 C 11.738281 -42.8125 12.109375 -41.609375 12.109375 -40.265625 C 12.109375 -37.722656 11.539062 -35.4375 10.40625 -33.40625 C 9.269531 -31.382812 7.273438 -29.4375 4.421875 -27.5625 Z M 4.421875 -27.5625 "/></g></g></g><g fill="#000000" fill-opacity="1"><g transform="translate(406.257936, 123.109682)"><g><path d="M 18.265625 1.140625 C 15.859375 1.140625 13.492188 0.828125 11.171875 0.203125 C 8.847656 -0.421875 6.925781 -1.332031 5.40625 -2.53125 C 3.894531 -3.738281 3.140625 -5.191406 3.140625 -6.890625 L 3.140625 -14.71875 L 5.015625 -14.71875 C 5.734375 -10.082031 7.171875 -6.78125 9.328125 -4.8125 C 11.492188 -2.851562 14.445312 -1.875 18.1875 -1.875 C 20.726562 -1.875 22.769531 -2.421875 24.3125 -3.515625 C 25.851562 -4.609375 26.625 -6.222656 26.625 -8.359375 C 26.625 -10.273438 26.007812 -11.867188 24.78125 -13.140625 C 23.550781 -14.410156 21.867188 -15.691406 19.734375 -16.984375 L 11.5 -21.9375 C 8.46875 -23.71875 6.328125 -25.546875 5.078125 -27.421875 C 3.828125 -29.296875 3.203125 -31.457031 3.203125 -33.90625 C 3.203125 -37.4375 4.550781 -40.226562 7.25 -42.28125 C 9.945312 -44.332031 13.59375 -45.359375 18.1875 -45.359375 C 20.644531 -45.359375 23.019531 -45.046875 25.3125 -44.421875 C 27.613281 -43.796875 29.519531 -42.878906 31.03125 -41.671875 C 32.550781 -40.460938 33.3125 -39.015625 33.3125 -37.328125 L 33.3125 -29.5 L 31.4375 -29.5 C 30.675781 -34.132812 29.25 -37.429688 27.15625 -39.390625 C 25.0625 -41.359375 22.320312 -42.34375 18.9375 -42.34375 C 16.519531 -42.34375 14.609375 -41.757812 13.203125 -40.59375 C 11.804688 -39.4375 11.109375 -37.859375 11.109375 -35.859375 C 11.109375 -33.984375 11.742188 -32.460938 13.015625 -31.296875 C 14.285156 -30.140625 15.96875 -28.9375 18.0625 -27.6875 L 26.28125 -22.8125 C 29.320312 -21.03125 31.539062 -19.28125 32.9375 -17.5625 C 34.34375 -15.84375 35.046875 -13.753906 35.046875 -11.296875 C 35.046875 -7.460938 33.597656 -4.429688 30.703125 -2.203125 C 27.804688 0.0234375 23.660156 1.140625 18.265625 1.140625 Z M 18.265625 1.140625 "/></g></g></g></g></g><path fill="#000e37" d="M 226.90625 149.878906 C 212.609375 166.050781 211.5625 170.71875 211.519531 193.34375 C 211.429688 230.136719 216.136719 263.792969 201.230469 299.058594 C 187.453125 331.714844 109.59375 331.363281 84.917969 312.226562 C 83.742188 311.3125 112.730469 333.542969 111.816406 333.019531 C 153.929688 358.742188 188.628906 334.371094 212.347656 301.242188 C 230.785156 275.433594 232.050781 245.265625 230.351562 214.703125 C 229.085938 191.949219 221.761719 158.730469 234.753906 138.195312 C 229.171875 144.910156 225.949219 151.054688 220.367188 157.769531 " fill-opacity="1" fill-rule="nonzero"/><g clip-path="url(#4e97805d92)"><path fill="#000e37" d="M 325.300781 95.996094 C 318.847656 110.25 309.648438 142.816406 335.414062 144.515625 C 347.578125 145.300781 355.773438 134.054688 362.703125 125.726562 C 369.289062 117.878906 376.523438 110.25 378.878906 99.964844 C 382.84375 82.613281 374.300781 62.339844 358.648438 53.664062 C 329.527344 37.535156 304.550781 58.679688 287.023438 79.910156 C 277.78125 91.113281 264.835938 107.898438 276.867188 121.804688 C 283.929688 129.957031 292.472656 123.941406 300.320312 127.90625 C 311.21875 133.398438 306.859375 143.820312 301.148438 152.191406 L 317.582031 132.441406 C 300.015625 152.234375 271.765625 155.808594 254.589844 175.207031 C 240.289062 191.382812 235.667969 202.804688 235.625 225.472656 C 235.539062 262.265625 240.246094 295.921875 225.335938 331.191406 C 211.5625 363.84375 133.699219 363.492188 109.027344 344.355469 C 107.847656 343.441406 136.839844 365.671875 135.925781 365.148438 C 178.035156 390.871094 212.738281 366.5 236.453125 333.371094 C 254.894531 307.5625 256.160156 277.394531 254.457031 246.832031 C 253.195312 224.078125 245.871094 190.859375 258.863281 170.324219 C 253.28125 177.039062 250.054688 183.183594 244.476562 189.898438 C 258.863281 176.691406 277.695312 173.203125 292.867188 160.648438 C 300.449219 154.371094 306.773438 146 312.917969 138.371094 C 319.066406 130.742188 331.140625 116.703125 319.71875 108.550781 C 311.523438 102.664062 301.671875 110.992188 293.695312 101.75 C 285.148438 91.855469 292.296875 79.125 298.054688 69.445312 C 296.703125 71.148438 293.34375 72.804688 291.992188 74.503906 L 295.742188 69.96875 L 283.058594 85.011719 C 299.710938 69.140625 326.609375 61.597656 346.53125 76.769531 C 364.535156 90.460938 367.847656 116.179688 355.425781 134.359375 L 372.164062 114.261719 C 362.75 123.765625 348.1875 129.605469 338.683594 116.746094 C 329.179688 103.886719 339.992188 83.875 345.484375 71.667969 C 342.039062 79.253906 328.832031 88.324219 325.386719 95.996094 Z M 325.300781 95.996094 " fill-opacity="1" fill-rule="nonzero"/></g><path fill="#000e37" d="M 184.621094 154.0625 C 201.796875 179.742188 187.148438 233.972656 172.980469 260.042969 C 165.394531 274.035156 155.976562 287.027344 135.097656 284.804688 C 120.882812 283.277344 118.835938 262.746094 120.144531 250.757812 C 124.589844 210.300781 169.054688 167.054688 187.148438 143.820312 C 211.039062 113.128906 244.648438 86.101562 273.683594 60.246094 C 287.109375 48.304688 300.757812 35.398438 315.402344 24.980469 C 330.050781 14.5625 338.421875 23.542969 350.671875 33.132812 C 376.960938 53.664062 398.886719 75.679688 415.410156 104.890625 C 442.4375 152.539062 447.933594 213.789062 436.554688 267.234375 C 432.28125 287.203125 421.253906 301.589844 408.304688 316.847656 C 391.5625 336.550781 322.816406 351.460938 307.207031 372.082031 C 310.957031 367.113281 361.65625 368.027344 375.78125 357.828125 C 414.886719 329.578125 449.851562 283.628906 455.429688 232.882812 C 464.148438 153.671875 446.582031 80.039062 384.285156 26.722656 C 372.6875 16.785156 354.160156 -4.578125 338.160156 0.871094 C 329.746094 3.707031 320.808594 14.082031 314.007812 19.75 C 304.027344 28.117188 294.21875 36.664062 284.582031 45.382812 C 253.414062 73.542969 218.796875 99.570312 195.039062 128.210938 C 176.03125 151.144531 63.207031 268.019531 101.441406 307.039062 C 127.597656 333.761719 167.75 313.140625 182.832031 298.144531 C 210.996094 270.113281 210.296875 173.898438 198.613281 131.613281 C 199.878906 133.488281 183.050781 151.839844 184.488281 154.0625 Z M 184.621094 154.0625 " fill-opacity="1" fill-rule="nonzero"/><path fill="#000e37" d="M 389.734375 146.261719 C 400.457031 184.1875 413.710938 240.644531 386.679688 274.386719 L 402.332031 255.726562 C 392.304688 265.1875 378.441406 272.117188 364.667969 265.710938 C 350.890625 259.300781 348.625 244.828125 357.515625 232.925781 C 352.023438 239.511719 346.355469 244.871094 340.863281 251.453125 C 354.550781 241.644531 370.507812 248.578125 375.914062 264.273438 C 382.714844 284.152344 370.160156 303.464844 355.207031 315.015625 C 341.691406 325.480469 327.871094 330.929688 311.175781 325.785156 C 295.742188 321.074219 267.015625 262.617188 257.726562 249.320312 C 258.601562 244.523438 255.941406 299.320312 257.726562 309.132812 C 261.957031 332.148438 297.964844 354.6875 321.332031 345.402344 C 342.214844 337.074219 356.820312 317.675781 370.726562 300.890625 C 384.632812 284.109375 403.378906 261.308594 390.386719 238.941406 C 378.269531 218.0625 359.347656 227.652344 347.839844 241.429688 C 336.328125 255.203125 325.34375 278.746094 350.757812 287.070312 C 372.949219 294.351562 387.945312 273.382812 399.890625 258.691406 C 429.578125 222.203125 418.246094 168.101562 406.429688 126.121094 C 407.738281 130.699219 388.292969 141.335938 389.691406 146.21875 Z M 389.734375 146.261719 " fill-opacity="1" fill-rule="nonzero"/><path fill="#000e37" d="M 393.832031 271.246094 L 411.75 291.691406 C 410.964844 290.820312 429.535156 272.773438 428.488281 271.597656 C 422.515625 264.796875 416.542969 257.949219 410.570312 251.148438 C 411.355469 252.023438 392.785156 270.070312 393.832031 271.246094 Z M 393.832031 271.246094 " fill-opacity="1" fill-rule="nonzero"/><path fill="#000e37" d="M 291.949219 267.410156 C 297.441406 274.515625 304.15625 280.226562 312.046875 284.5 C 312.527344 284.761719 319.851562 275.34375 320.503906 274.515625 C 321.160156 273.730469 328.484375 264.226562 328.789062 264.402344 C 320.898438 260.128906 314.183594 254.417969 308.691406 247.3125 C 308.863281 247.53125 300.886719 256.46875 300.234375 257.296875 C 299.578125 258.125 291.558594 266.886719 291.949219 267.410156 Z M 291.949219 267.410156 " fill-opacity="1" fill-rule="nonzero"/><path fill="#000e37" d="M 271.375 256.816406 C 275.6875 264.839844 281.355469 271.769531 288.332031 277.613281 C 288.460938 277.699219 305.246094 257.644531 305.070312 257.515625 C 298.097656 251.671875 292.429688 244.699219 288.113281 236.71875 C 288.417969 237.242188 280.398438 245.789062 279.65625 246.703125 C 278.828125 247.664062 270.851562 255.859375 271.375 256.816406 Z M 271.375 256.816406 " fill-opacity="1" fill-rule="nonzero"/><path fill="#000e37" d="M 157.023438 123.066406 C 161.820312 124.636719 165.785156 127.558594 168.664062 131.65625 C 168.445312 131.351562 176.46875 122.5 177.121094 121.671875 C 179.082031 119.320312 181.042969 116.921875 183.007812 114.523438 C 183.269531 114.21875 185.535156 111.691406 185.40625 111.515625 C 182.527344 107.417969 178.558594 104.496094 173.765625 102.925781 C 173.589844 102.882812 170.929688 106.195312 171.234375 105.804688 C 169.230469 108.160156 167.269531 110.511719 165.261719 112.867188 C 163.257812 115.222656 161.339844 117.617188 159.378906 120.015625 C 159.117188 120.320312 157.109375 123.066406 156.980469 123.023438 Z M 157.023438 123.066406 " fill-opacity="1" fill-rule="nonzero"/><path fill="#000e37" d="M 133.351562 130.785156 L 149.308594 135.796875 C 149.308594 135.796875 152.140625 132.527344 151.835938 132.921875 C 153.839844 130.566406 155.804688 128.210938 157.808594 125.859375 C 159.8125 123.503906 161.730469 121.105469 163.695312 118.707031 C 163.957031 118.402344 165.917969 115.65625 166.089844 115.699219 L 150.136719 110.6875 C 150.136719 110.6875 147.300781 113.957031 147.609375 113.566406 C 145.601562 115.917969 143.640625 118.273438 141.636719 120.625 C 139.628906 122.980469 137.710938 125.378906 135.75 127.777344 C 135.488281 128.082031 133.527344 130.828125 133.351562 130.785156 Z M 133.351562 130.785156 " fill-opacity="1" fill-rule="nonzero"/><path fill="#000e37" d="M 385.113281 141.246094 C 386.070312 143.863281 389.382812 145.34375 391.390625 147.046875 C 394.179688 149.441406 395.707031 152.277344 394.398438 155.894531 C 394.660156 155.199219 396.578125 153.324219 396.882812 152.972656 C 398.84375 150.621094 400.804688 148.222656 402.722656 145.824219 C 404.644531 143.425781 406.605469 141.027344 408.523438 138.632812 C 409.21875 137.757812 410.484375 136.625 410.875 135.578125 C 412.183594 131.917969 410.660156 129.128906 407.867188 126.730469 C 405.863281 125.03125 402.59375 123.546875 401.589844 120.933594 C 401.589844 121.019531 398.757812 124.246094 399.105469 123.851562 C 397.144531 126.207031 395.183594 128.605469 393.265625 131.003906 C 391.347656 133.398438 389.382812 135.796875 387.464844 138.195312 C 387.160156 138.589844 384.980469 140.855469 385.113281 141.246094 Z M 385.113281 141.246094 " fill-opacity="1" fill-rule="nonzero"/><path fill="#000e37" d="M 321.941406 170.195312 C 322.902344 172.808594 326.214844 174.292969 328.222656 175.992188 C 331.011719 178.390625 332.535156 181.222656 331.230469 184.84375 C 331.492188 184.144531 333.410156 182.269531 333.714844 181.921875 C 335.675781 179.566406 337.636719 177.167969 339.554688 174.773438 C 341.472656 172.375 343.433594 169.976562 345.355469 167.578125 C 346.050781 166.707031 347.316406 165.574219 347.707031 164.527344 C 349.015625 160.863281 347.488281 158.074219 344.699219 155.675781 C 342.695312 153.976562 339.425781 152.496094 338.421875 149.878906 C 338.421875 149.964844 335.589844 153.191406 335.9375 152.800781 C 333.976562 155.152344 332.015625 157.550781 330.09375 159.949219 C 328.175781 162.347656 326.214844 164.746094 324.296875 167.140625 C 323.992188 167.535156 321.8125 169.800781 321.941406 170.195312 Z M 321.941406 170.195312 " fill-opacity="1" fill-rule="nonzero"/><path fill="#000e37" d="M 198.746094 131.65625 C 193.554688 126.773438 185.972656 125.683594 178.910156 125.203125 C 178.601562 125.203125 176.164062 128.34375 176.378906 128.082031 C 174.375 130.4375 172.414062 132.789062 170.40625 135.144531 C 168.402344 137.5 166.484375 139.894531 164.523438 142.292969 C 164.21875 142.6875 162.429688 145.300781 162.125 145.300781 C 169.230469 145.78125 179.433594 149.269531 184.621094 154.109375 C 184.402344 153.890625 200.664062 137.714844 200.140625 137.238281 L 198.746094 131.699219 Z M 198.746094 131.65625 " fill-opacity="1" fill-rule="nonzero"/><path fill="#000e37" d="M 221.195312 156.417969 C 253.933594 138.109375 260.910156 210.082031 297.441406 194.695312 C 314.53125 187.5 328.351562 164.570312 338.421875 149.617188 C 333.582031 156.8125 326.824219 162.738281 321.941406 169.933594 C 318.804688 174.597656 305.070312 177.867188 298.359375 176.382812 C 289.378906 174.421875 283.058594 166.96875 277.867188 159.949219 C 268.625 147.523438 255.941406 125.816406 237.632812 136.058594 C 230.523438 140.027344 228.171875 152.496094 221.152344 156.375 Z M 221.195312 156.417969 " fill-opacity="1" fill-rule="nonzero"/></svg>